<svg xmlns="http://www.w3.org/2000/svg" viewBox="0 0 610 278.03"><defs><style>.cls-1{fill:#a01f23;}.cls-2{fill:#fff;}.cls-3{fill:#a01e22;}</style></defs><title>Asset 1FIC Logo</title><g id="Layer_2" data-name="Layer 2"><g id="FIC"><g id="Left_Side" data-name="Left Side"><rect class="cls-1" y="241" width="29" height="29"/></g><g id="Right_Side" data-name="Right Side"><rect class="cls-1" x="581" y="241" width="29" height="29"/></g><g id="Fellowship_India_Church" data-name="Fellowship India Church"><path class="cls-2" d="M42.31,241.86H61.73v3H47v9.29H60.61v3H47v12.65H42.31Z"/><path class="cls-2" d="M69.22,260.44c.11,4.94,4.17,7,8.88,7a21.37,21.37,0,0,0,7.17-1l.8,2.61a26.34,26.34,0,0,1-8.62,1.24c-8,0-12.74-4.06-12.74-10.12s4.6-10.82,12.15-10.82c8.46,0,10.7,5.76,10.7,9.46a10.71,10.71,0,0,1-.16,1.7ZM83,257.83c.05-2.32-1.23-5.93-6.53-5.93a6.94,6.94,0,0,0-7.22,5.93Z"/><path class="cls-2" d="M93.41,240.37h4.71v29.45H93.41Z"/><path class="cls-2" d="M106,240.37h4.71v29.45H106Z"/><path class="cls-2" d="M142.11,259.61c0,7.42-6.64,10.66-12.9,10.66-7,0-12.41-4-12.41-10.33,0-6.72,5.67-10.66,12.84-10.66C137.08,249.28,142.11,253.47,142.11,259.61Zm-20.55.21a7.87,7.87,0,0,0,15.73-.08,7.44,7.44,0,0,0-7.76-7.71C124,252,121.56,256,121.56,259.82Z"/><path class="cls-2" d="M149.55,249.74l3.42,10.2c.75,2.24,1.44,4.31,1.93,6.39h.16c.59-2,1.44-4.19,2.3-6.35l4.23-10.24h4l4,10c1,2.41,1.71,4.52,2.3,6.55H172a49.25,49.25,0,0,1,2-6.51l3.69-10.08h4.66L174,269.81h-4.28l-4-9.58a55.55,55.55,0,0,1-2.3-6.59h-.11a49.32,49.32,0,0,1-2.35,6.64l-4.17,9.54h-4.28l-7.81-20.07Z"/><path class="cls-2" d="M186.1,266.08a15,15,0,0,0,6.21,1.45c3.42,0,5-1.33,5-3s-1.34-2.7-4.82-3.69c-4.66-1.29-6.85-3.28-6.85-5.68,0-3.24,3.37-5.89,8.94-5.89a16,16,0,0,1,6.37,1.24l-1.18,2.65a12.28,12.28,0,0,0-5.3-1.16c-2.78,0-4.33,1.24-4.33,2.74,0,1.66,1.55,2.41,4.92,3.4,4.5,1.33,6.8,3.07,6.8,6.06,0,3.53-3.53,6-9.69,6a18.27,18.27,0,0,1-7.28-1.37Z"/><path class="cls-2" d="M207.93,240.37h4.71v12.53h.11a8.09,8.09,0,0,1,3.37-2.57,11.89,11.89,0,0,1,4.82-1c3.48,0,9,1.66,9,8.58v11.94h-4.71V258.28c0-3.24-1.55-6-6-6A6.77,6.77,0,0,0,213,256a3.52,3.52,0,0,0-.32,1.74v12.11h-4.71Z"/><path class="cls-2" d="M242.87,244.1c.05,1.24-1.12,2.24-3,2.24-1.66,0-2.84-1-2.84-2.24s1.23-2.28,2.94-2.28S242.87,242.81,242.87,244.1Zm-5.24,25.71V249.74h4.71v20.07Z"/><path class="cls-2" d="M250.15,256.29c0-2.57-.11-4.64-.21-6.55h4.23l.21,3.44h.11c1.93-2.45,5-3.9,9.2-3.9,6.26,0,11,4.11,11,10.2,0,7.22-5.67,10.78-11.77,10.78-3.42,0-6.42-1.16-8-3.15h-.11V278h-4.66Zm4.66,5.35a6.47,6.47,0,0,0,.21,1.49c.86,2.53,3.69,4.27,7.06,4.27,5,0,7.87-3.15,7.87-7.76,0-4-2.73-7.46-7.71-7.46-3.21,0-6.21,1.78-7.12,4.52a4.72,4.72,0,0,0-.32,1.49Z"/><path class="cls-2" d="M296.76,241.86v28H292.1v-28Z"/><path class="cls-2" d="M305.21,255.17c0-2.07-.05-3.77-.21-5.43h4.17l.27,3.32h.11c1.28-1.91,4.28-3.77,8.56-3.77,3.58,0,9.15,1.66,9.15,8.54v12h-4.71V258.24c0-3.23-1.55-5.93-6-5.93a6.64,6.64,0,0,0-6.31,3.73,4.17,4.17,0,0,0-.32,1.7v12.07h-4.71Z"/><path class="cls-2" d="M357.28,240.37v24.26a50.52,50.52,0,0,0,.21,5.18h-4.23l-.21-3.48h-.11c-1.45,2.24-4.6,3.94-8.83,3.94-6.26,0-11.08-4.11-11.08-10.2-.05-6.68,5.3-10.78,11.61-10.78,4,0,6.64,1.45,7.81,3.07h.11v-12Zm-4.71,17.54a5.07,5.07,0,0,0-.21-1.53c-.7-2.32-3.26-4.23-6.8-4.23-4.87,0-7.76,3.32-7.76,7.76,0,4.06,2.57,7.42,7.65,7.42,3.16,0,6-1.62,6.9-4.35a5,5,0,0,0,.21-1.58Z"/><path class="cls-2" d="M370.34,244.1c.05,1.24-1.12,2.24-3,2.24-1.66,0-2.84-1-2.84-2.24s1.23-2.28,2.94-2.28S370.34,242.81,370.34,244.1Zm-5.24,25.71V249.74h4.71v20.07Z"/><path class="cls-2" d="M392,269.81l-.37-2.53h-.16a10.77,10.77,0,0,1-7.92,3c-5.24,0-7.92-2.86-7.92-5.76,0-4.85,5.57-7.51,15.57-7.46v-.42c0-1.66-.59-4.65-5.89-4.65a15.78,15.78,0,0,0-6.74,1.49l-1.07-2.41a19.72,19.72,0,0,1,8.51-1.78c7.92,0,9.85,4.19,9.85,8.21V265a22.09,22.09,0,0,0,.43,4.81Zm-.7-10.24c-5.14-.08-11,.62-11,4.52,0,2.36,2,3.48,4.44,3.48,3.37,0,5.51-1.66,6.26-3.36a3,3,0,0,0,.27-1.16Z"/><path class="cls-2" d="M440.12,268.9a29.07,29.07,0,0,1-9.53,1.33c-10.17,0-17.82-5-17.82-14.14,0-8.75,7.65-14.68,18.84-14.68a24.2,24.2,0,0,1,8.56,1.24L439,245.59a21.22,21.22,0,0,0-7.28-1.16c-8.46,0-14.07,4.19-14.07,11.53,0,6.84,5.08,11.24,13.86,11.24a23.38,23.38,0,0,0,7.6-1.16Z"/><path class="cls-2" d="M445.79,240.37h4.71v12.53h.11a8.09,8.09,0,0,1,3.37-2.57,11.89,11.89,0,0,1,4.82-1c3.48,0,9,1.66,9,8.58v11.94h-4.71V258.28c0-3.24-1.55-6-6-6a6.77,6.77,0,0,0-6.31,3.65,3.52,3.52,0,0,0-.32,1.74v12.11h-4.71Z"/><path class="cls-2" d="M497.16,264.34c0,2.07.05,3.9.21,5.47H493.2l-.27-3.28h-.11c-1.23,1.62-4,3.73-8.56,3.73-4.07,0-8.94-1.74-8.94-8.79V249.74H480v11.12c0,3.82,1.5,6.39,5.78,6.39a6.94,6.94,0,0,0,6.21-3.32,4.28,4.28,0,0,0,.43-1.87V249.74h4.71Z"/><path class="cls-2" d="M505,256c0-2.36-.05-4.4-.21-6.26h4.12l.16,3.94h.21a7.7,7.7,0,0,1,7.17-4.4,6.51,6.51,0,0,1,1.34.12v3.44a9.07,9.07,0,0,0-1.61-.12,6.13,6.13,0,0,0-6.31,4.69,8,8,0,0,0-.21,1.7v10.7H505Z"/><path class="cls-2" d="M540.46,269.07a21.69,21.69,0,0,1-7.44,1.16c-7.81,0-12.9-4.11-12.9-10.24s5.46-10.66,13.91-10.66a19.7,19.7,0,0,1,6.53,1l-1.07,2.82a13.54,13.54,0,0,0-5.46-1c-5.94,0-9.15,3.4-9.15,7.59,0,4.65,3.85,7.51,9,7.51a16.65,16.65,0,0,0,5.78-1Z"/><path class="cls-2" d="M546,240.37h4.71v12.53h.11a8.09,8.09,0,0,1,3.37-2.57,11.89,11.89,0,0,1,4.82-1c3.48,0,9,1.66,9,8.58v11.94H563.3V258.28c0-3.24-1.55-6-6-6A6.77,6.77,0,0,0,551,256a3.52,3.52,0,0,0-.32,1.74v12.11H546Z"/></g><g id="C"><path id="C-2" data-name="C" class="cls-3" d="M450,67.66V142a16,16,0,0,0,15.83,16H551v52H401.83A16,16,0,0,1,386,194V79h41V56H386V15.67A15.73,15.73,0,0,1,401.83,0H551V52H465.83A15.72,15.72,0,0,0,450,67.66Z"/></g><g id="I"><polygon id="I-2" data-name="I" class="cls-3" points="322 56 322 79 363 79 363 210 299 210 299 0 363 0 363 56 322 56"/></g><g id="F"><polygon id="F-2" data-name="F" class="cls-3" points="123 52 123 89 275 89 275 141 123 141 123 210 59 210 59 0 282 0 282 52 123 52"/></g></g></g></svg>