<svg xmlns="http://www.w3.org/2000/svg" viewBox="0 0 794 592.44"><defs><style>.cls-1{fill:#fff;}</style></defs><title>Asset 1For New Website</title><g id="Layer_2" data-name="Layer 2"><g id="Home"><g id="Hero_Section" data-name="Hero Section"><g id="Jesus"><path class="cls-1" d="M791.49,292.77a12.81,12.81,0,0,1-9,5.13,13.93,13.93,0,0,1-9.31-2.4c-2.35-1.57-5.14-4.75-5.2-11-.3-4.15-1.41-7.09-3.3-8.75a54.78,54.78,0,0,0-6.71-5.2c-2.47-1.39-9.77-5.31-22.89,7.35-2.93,2.93-6.17,6.45-9.57,10.41a33.65,33.65,0,0,0-6.5,11.21,25.31,25.31,0,0,0-.23,15,59.9,59.9,0,0,0,7.2,15.72,122.47,122.47,0,0,0,11.44,15.07c4.38,5,8.53,9.39,12.32,13.18a127.66,127.66,0,0,0,10.61,9.21,122.5,122.5,0,0,1,14.11,13.18A63.43,63.43,0,0,1,785.46,397a23.21,23.21,0,0,1,0,19.93,37.59,37.59,0,0,1-11.63,14.76,79.4,79.4,0,0,1-16.7,10.08,85.35,85.35,0,0,1-19.12,6,63.87,63.87,0,0,1-11.88,1.15,54.37,54.37,0,0,1-7.46-.51c-7.88-1-14.42-4-19.41-9-5.19-5.19-7.81-12-7.81-20.13a11,11,0,0,1,3.81-8.8,13.33,13.33,0,0,1,6.66-3,12.13,12.13,0,0,1,7.77,1.57,9.94,9.94,0,0,1,5,9,8.48,8.48,0,0,0,2.11,2.77,9,9,0,0,0,5.62,2.73c5.69.66,12.24-.4,19.51-3.17a46.19,46.19,0,0,0,17.69-11.39l.15-.16c.16-.16.46-.46.38-1.63a16.7,16.7,0,0,0-1.53-5.62,23.23,23.23,0,0,0-4-5.82c-2-2.14-3.76-4-5.3-5.59l0,0-15.06-13.91a134.43,134.43,0,0,1-14.65-15.87c-2.84-3.54-6-7.55-9.95-12.57-1.82-2.33-3.54-4.73-5.12-7.18-2.58,6.93-5.4,13.82-8.45,20.59a270.29,270.29,0,0,1-14.64,28.07,163.69,163.69,0,0,1-17.87,24.52c-8.45,9.4-15.81,13.54-22.55,12.7-4.73-.59-11.27-3.5-15.55-14.07-2.82-7-4.87-16-6.23-27.49q-.92-7.68-1.53-16.12c-1,1.84-2.07,3.75-3.16,5.68-5.14,9.24-10.75,18.5-16.68,27.53a229.66,229.66,0,0,1-19.3,25.48c-7.12,8.11-14.65,14.18-22.35,18-4.37,2.16-8.26,3.24-11.8,3.24a16.15,16.15,0,0,1-3.91-.47,19.17,19.17,0,0,1-10.82-7,32.18,32.18,0,0,1-5.44-11.74,53.65,53.65,0,0,1-1.64-13,258.23,258.23,0,0,1,1.2-34.87c1.16-11.54,2.65-23.23,4.41-34.76s3.5-22.89,5.27-34.21c1.69-10.95,3-22.14,3.72-33.24a10.77,10.77,0,0,1,4.46-8.84,13.12,13.12,0,0,1,7.73-2.54,12,12,0,0,1,7.77,2.79A11,11,0,0,1,561,279.6l0,.5c-1.56,17.94-3.64,35.95-6.18,53.51-2.5,17.28-4.75,35.09-6.68,53l0,.26a150.24,150.24,0,0,0-1.39,18.83c-.16,6.36.54,11.46,2.11,15.2a17.31,17.31,0,0,0,3.39-2.62A141.68,141.68,0,0,0,569,398.89c5.88-8,11.28-16.07,16-24.08s7.81-13.1,9-15.12c3.8-6.86,8.33-14.82,13.44-23.67a66.22,66.22,0,0,0,8.62-24.36c.7-6.75,5.24-10.94,11.86-10.94,6.87,0,11.31,4.55,11.31,11.61,0,8.31.1,16.23.3,23.51.2,7.73.29,15.35.29,22.65,0,1.26.1,4,.56,9.76.37,4.67.84,9.58,1.45,15a87.57,87.57,0,0,0,2.45,13.43,17.26,17.26,0,0,0,1.1,3.07l.38-.36a47.51,47.51,0,0,0,6-7.53c2.05-3.19,3.93-6.38,5.58-9.51,1.54-2.9,2.87-5.45,3.75-7.19l.06-.12c6.53-12.3,12.76-25.23,18.51-38.46a408.56,408.56,0,0,0,15-40l.23-.61a12.36,12.36,0,0,1,.55-1.11s0,0,0,0a73.43,73.43,0,0,1,9.88-20.53,71.8,71.8,0,0,1,17.48-18.09A52.46,52.46,0,0,1,744.47,247a39,39,0,0,1,23.59,3.39l.15.07a37.92,37.92,0,0,1,6.93,4.81,83.09,83.09,0,0,1,7.56,7.24,75.56,75.56,0,0,1,6.64,8.23,24.34,24.34,0,0,1,4.14,9.47C794.59,285.43,793.93,289.63,791.49,292.77Z"/><path class="cls-1" d="M523.51,280.24a24.14,24.14,0,0,0-4.13-9.47,75.79,75.79,0,0,0-6.65-8.23,81.5,81.5,0,0,0-7.55-7.24,37.94,37.94,0,0,0-6.94-4.81l-.15-.07A38.92,38.92,0,0,0,474.52,247a52.46,52.46,0,0,0-21.64,9.16,71.84,71.84,0,0,0-17.49,18.09,74.12,74.12,0,0,0-9,17.89c-.66,1.9-1.22,3.84-1.72,5.8-.06.2-.12.4-.16.6a0,0,0,0,0,0,0,37.19,37.19,0,0,0-1,14.81,313.4,313.4,0,0,1-5,33.68,160.61,160.61,0,0,1-16,44.2,134.57,134.57,0,0,1-12.29,17.57,28.38,28.38,0,0,1-15.66,9.47l-.17,0c-6.59,1.89-11.94,1.44-16.38-1.37a38.18,38.18,0,0,1-12.45-13,73.08,73.08,0,0,1-7.85-19.23,91.24,91.24,0,0,1-2.47-13.13c9.23-1.71,18.11-5.89,26.46-12.47a99.93,99.93,0,0,0,36.6-62.67c1.94-12.64.28-24.32-4.92-34.71-4.3-8.6-10.53-13.85-18.53-15.62s-16.08.74-23.64,7.36a85.57,85.57,0,0,0-12.4,12.86,13.24,13.24,0,0,0-4.19-1.9c-12.46-3.23-17.26-3-27.77-2.33l-3.56.21c.8-7,1.56-14.13,2.28-21.4.9-9.09,1.75-18.76,2.52-28.75v-.13c.77-14,1.27-29.79,1.47-47s-.39-34.7-1.72-51.94a404.66,404.66,0,0,0-6.82-49.5c-3.27-15.95-8.24-29.62-14.74-40.6-8-13.7-18.68-21.34-31.85-22.7-12.14-1.26-24.71.53-37.4,5.3a179.24,179.24,0,0,0-35.32,18.12c-11.25,7.43-19.68,13.09-25.8,17.3l-.13.09a569.81,569.81,0,0,0-74.08,64.64,298.44,298.44,0,0,0-56.33,81.37c-2,4.4-4.09,9.29-6.22,14.53a84,84,0,0,0-5,17.55,76.5,76.5,0,0,0-1,18.32,40.66,40.66,0,0,0,6.06,18.64,56.39,56.39,0,0,0,18.5,19.53,89.68,89.68,0,0,0,23.42,10.61A91.41,91.41,0,0,0,86.63,290a145.92,145.92,0,0,0,23.74-1.83l.12,0c5.53-1,7.35-4.51,8-6.52a11.21,11.21,0,0,0-.56-7.89,16,16,0,0,0-4.54-5.73,11.39,11.39,0,0,0-9.59-2.29,79,79,0,0,1-22.5,0,63.5,63.5,0,0,1-22-7,45.81,45.81,0,0,1-15.85-14c-3.9-5.52-5.47-12.08-4.82-20.06a86.28,86.28,0,0,1,10.95-33.36l.08-.13a316.23,316.23,0,0,1,50.79-69.74A542.65,542.65,0,0,1,165.34,64q8.75-5.83,23.84-16a186.6,186.6,0,0,1,30.61-16.72c10.15-4.36,19.85-6.66,28.81-6.85,7.71-.15,13.35,3.16,17.7,10.29,5.08,8.72,9.19,21.18,12.17,37a422.66,422.66,0,0,1,6.29,51.58c1.13,18,1.6,35.7,1.42,52.47s-.63,30-1.36,39.59c-.77,8.84-1.66,17.74-2.62,26.45-.82,7.31-1.69,14.64-2.6,21.86a489.15,489.15,0,0,0-109.45,22A268.44,268.44,0,0,0,71,343.74a247,247,0,0,0-32,36.8,221.14,221.14,0,0,0-25.19,45.6A192.3,192.3,0,0,0,.85,477,134.54,134.54,0,0,0,5.7,530.68c4.51,16,11.13,28.86,19.7,38.25S44,585,55,588.64a78.08,78.08,0,0,0,24.4,3.8,87.68,87.68,0,0,0,10.5-.63,150.84,150.84,0,0,0,35.55-8.8,170.17,170.17,0,0,0,33.87-17.54,186.67,186.67,0,0,0,28.35-22.92,289.93,289.93,0,0,0,44.12-57.24,463.71,463.71,0,0,0,32.55-66.57,562,562,0,0,0,22.44-70.25c5.44-21.92,9.85-43.19,13.16-63.33,2.84-.13,5.29-.27,7.41-.38,6.25-.35,10-.55,13.58-.18a27.09,27.09,0,0,1,5.94,1.49,129.42,129.42,0,0,0-7.4,19.7A170.75,170.75,0,0,0,313.74,336a203.09,203.09,0,0,0-.9,28.55,145.89,145.89,0,0,0,4.86,31.34,95,95,0,0,0,12.47,28.6,47.33,47.33,0,0,0,21.93,18.23A34.55,34.55,0,0,0,365,445.09,56.76,56.76,0,0,0,385,441a68.29,68.29,0,0,0,31.23-25.15,150.5,150.5,0,0,0,18.54-37.37,214.7,214.7,0,0,0,7.33-27.61c2.85,3.62,5.28,6.68,7.5,9.46a136.42,136.42,0,0,0,14.65,15.87l15.07,13.91,0,0c1.54,1.57,3.33,3.45,5.3,5.59a23.53,23.53,0,0,1,4,5.82,16.71,16.71,0,0,1,1.53,5.62c.08,1.16-.22,1.46-.38,1.63l-.15.16A46.19,46.19,0,0,1,472,420.3c-7.27,2.77-13.83,3.83-19.51,3.17a9,9,0,0,1-5.62-2.73,8.64,8.64,0,0,1-2.12-2.77,9.94,9.94,0,0,0-5-9,12.11,12.11,0,0,0-7.77-1.57,13.34,13.34,0,0,0-6.65,3,11,11,0,0,0-3.83,8.8c0,8.17,2.64,14.95,7.83,20.13,5,5,11.51,8,19.4,9a54.53,54.53,0,0,0,7.47.51,63.75,63.75,0,0,0,11.87-1.15,85.64,85.64,0,0,0,19.13-6,79.4,79.4,0,0,0,16.7-10.08,37.59,37.59,0,0,0,11.63-14.76,23.21,23.21,0,0,0,0-19.93,63.1,63.1,0,0,0-10.91-16.09,121.63,121.63,0,0,0-14.12-13.18,127.32,127.32,0,0,1-10.6-9.21c-3.8-3.79-7.94-8.22-12.32-13.18a122.47,122.47,0,0,1-11.44-15.07,59.9,59.9,0,0,1-7.2-15.72,25.22,25.22,0,0,1,.23-15,33.67,33.67,0,0,1,6.5-11.21c3.39-4,6.64-7.48,9.55-10.41,13.13-12.67,20.42-8.75,22.9-7.35a54.78,54.78,0,0,1,6.71,5.2c1.88,1.66,3,4.6,3.3,8.75.06,6.26,2.85,9.44,5.19,11a14,14,0,0,0,9.32,2.4,12.83,12.83,0,0,0,9-5.13C524,289.63,524.63,285.43,523.51,280.24Zm-261,67.71a506.13,506.13,0,0,1-22.24,65.57A436,436,0,0,1,209.4,473.8a338.48,338.48,0,0,1-39.92,52.56,139,139,0,0,1-19.35,16.8,168.51,168.51,0,0,1-25.42,15.25,121,121,0,0,1-28.17,9.77,71.75,71.75,0,0,1-26.76.83,47,47,0,0,1-22.66-11c-7-5.94-12.71-14.95-17-26.85a107,107,0,0,1-6.65-45.48A158.39,158.39,0,0,1,33.57,440a190.9,190.9,0,0,1,22.12-41.41A233.46,233.46,0,0,1,84.15,365a249.56,249.56,0,0,1,44.27-33.42,307.52,307.52,0,0,1,49.33-23.51A332.06,332.06,0,0,1,230,293.44a429.11,429.11,0,0,1,46-6.37C272.37,307.37,267.83,327.83,262.49,347.95Zm73.19-11.89a204.3,204.3,0,0,1,5.68-24.44,117.91,117.91,0,0,1,9.19-22.55c3.37-6.22,7-10.49,10.69-12.67l.12-.07c3.07-1.89,5.23-2.55,6.47-2.55a2,2,0,0,1,.76.11,5.88,5.88,0,0,1,3.53,3.17,20.47,20.47,0,0,1,1.8,7.53,23.23,23.23,0,0,1-.13,5.9l-.13.67a76.94,76.94,0,0,1-7.57,24.93,115.07,115.07,0,0,1-16.37,22.71,31.26,31.26,0,0,1-15.26,9.47A80.7,80.7,0,0,1,335.69,336.05Z"/></g></g></g></g></svg>