<svg xmlns="http://www.w3.org/2000/svg" viewBox="0 0 699.35 224.65"><defs><style>.cls-1{fill:#fff;}</style></defs><title>Asset 2For New Website</title><g id="Layer_2" data-name="Layer 2"><g id="Home"><g id="Section_3" data-name="Section 3"><g id="Project_Vandavasi" data-name="Project Vandavasi"><path class="cls-1" d="M173,74c-1,1.82-1.67,3.3-2.49,4.71-1.59,2.75-3.31,5.43-4.85,8.21a7.56,7.56,0,0,0-1,3.33c-.12,5.94-.07,11.88-.12,17.82a16,16,0,0,1-.41,2.59,30.67,30.67,0,0,0-.88,5.12c0,4.8-3,8.4-7.77,9a7.8,7.8,0,0,0-1.65.29,13.89,13.89,0,0,1-17-7c-2.19-4.44-.82-12.63,2.82-16.13,3.38-3.24,7-6.29,10.29-9.58a4.84,4.84,0,0,0,1.21-3.2c-.13-9.8-.4-19.6-.65-29.41A15.17,15.17,0,0,0,150,57.3c-1.16.86-2,1.42-2.76,2-2.2,1.79-4.31,3.72-6.6,5.39a8.53,8.53,0,0,0-3.71,4.93c-1.4,5-3.08,10-8,13-2.44,1.53-4,4.49-6.53,5.85a18.47,18.47,0,0,1-16.16,1.16c-5.67-2.25-8.39-6.75-9.3-12.56-.21-1.31-.43-2.61-.76-4.65-1.27,1-2.27,1.51-2.69,2.29-.92,1.75-1.39,3.74-2.33,5.47-1.43,2.62-2.74,5.46-4.77,7.56-3,3.14-6.41,6-11.46,5.5-4.6-.44-8.51-3.56-8.82-8.14-.26-3.82-.56-7.79.17-11.49.63-3.18,2.7-6.08,4.11-9.11a16.44,16.44,0,0,0,.58-1.67,6.75,6.75,0,0,0-1.73-.52c-3.93-.09-7.89.16-11.79-.23-4.54-.46-6.7-3.43-7.18-7.9-.45-4.16.83-7.65,2.94-11.05,1.08-1.75,1.83-3.7,2.93-5.43,1.51-2.38,2.57-2.5,5-1.2,1.11.59,2.44.76,3.55,1.35,2.61,1.39,3.62,5.61,1.87,8.47s-1,5.92-.81,8.9c.05.65,1.42,1.63,2.23,1.69a54,54,0,0,0,6.7-.21c1.84-.1,3.68-.33,5.53-.38s3.13,1.06,3,3c-.22,2.67-.76,5.31-1.18,8a29,29,0,0,0-.6,3.54c-.12,3.85-.19,7.71-.13,11.56a7.85,7.85,0,0,0,1,2.53c.82-.42,2-.62,2.39-1.29a72.74,72.74,0,0,0,4.43-7.81c2-4.28,3.68-8.77,5.87-13,1.78-3.42,2.42-7.15,3.76-10.65a74,74,0,0,1,6-11.16c1.47-2.45,3.28-4.7,5-7,1.19-1.64,2.58-1.39,4.24-.6s3.31,1.58,4.93,1.49c2.89-.15,4.56,1.36,5.92,3.4.9,1.35,1.31,3,2.12,4.46a4.12,4.12,0,0,0,1.69,1.38c2,1,4,2,5.93,3S136.79,50,137.06,52a37.24,37.24,0,0,0,1.46,6c.47,1.52,1.64,1.72,2.86.87,2.76-1.92,5.47-3.91,8.19-5.88a1.3,1.3,0,0,0,.45-.54c.35-.91.43-2.44,1-2.66a40,40,0,0,1,8.26-2.3c2-.28,4.49,3.14,4.57,5.74s0,5.3.05,8c.09,5.05.2,10.11.37,15.16a18,18,0,0,0,.56,2.89l.63.1A41.7,41.7,0,0,0,168,75a103.23,103.23,0,0,0,6.07-16.2,30.79,30.79,0,0,1,9.4-15.27,59.7,59.7,0,0,1,9.27-6.74,8.14,8.14,0,0,1,5.45-.9A23.92,23.92,0,0,1,205.44,39a5.55,5.55,0,0,1,2.77,5c-.08,2,.35,4.08,0,6a12.59,12.59,0,0,1-2.39,5.09,28.21,28.21,0,0,1-11,8.64c-6.53,2.8-8.09,6.26-5.82,13.15.59,1.8.62,3.93,1.64,5.41,2.18,3.18,8.32,3.77,11.87,2.17,4.93-2.22,7.32-6.64,9.82-10.79a50.75,50.75,0,0,0,5.46-12.56,40.53,40.53,0,0,1,4.12-9.85c3.49-6,7.85-11.25,14.49-13.84,5.88-2.3,8.44-1.53,11.17,2.17,1.67,2.26,3.3,4.84,2.86,7.89a5.67,5.67,0,0,1-1.81,3.08c-.27.25-1.8-.53-2.49-1.13-2.52-2.23-3.19-2.49-5.3,0a38.82,38.82,0,0,0-5.14,8,39.32,39.32,0,0,0-4,18.78,27,27,0,0,0,.56,5.24c.51,2.16,3.23,3.23,5.77,2.33A22.45,22.45,0,0,0,247.46,78c4.71-5.23,9.5-10.4,13.9-15.89a13.61,13.61,0,0,0,2.39-6.67c.45-3.73.14-7.55.42-11.3.21-2.83.84-5.64,1.29-8.45.08-.47.24-.93.32-1.41.82-5.07.17-5.81-4.89-5.76a14.42,14.42,0,0,1-4.78-.28c-1.34-.47-2.39-1.79-3.56-2.74,1.08-.94,2-2.31,3.26-2.72,3.17-1.05,6.5-1.65,9.75-2.48,2.21-.57,3.73-1.49,4.15-4.24s1.91-5.61,2.86-8.42a13.77,13.77,0,0,0,.57-2.82c.2-1.71,1.32-2.31,2.82-2.39,2.2-.13,7,3.13,6.81,6.12-.13,2.24.14,4.49.18,6.74.06,2.75.57,3.28,3.31,3C291.83,17.7,297.4,17,303,16.43c3.43-.34,6.88-.58,10.32-.63.89,0,1.8.84,2.69,1.3-.66.79-1.16,1.89-2,2.31-8.57,4.28-17.82,6.19-27.21,7.56-3.55.52-3.61.68-3.93,4.19-.14,1.57-.76,3.1-.92,4.67a41,41,0,0,0-.19,6.19c.12,2.3.61,4.57.78,6.87.63,8.3,1,16.62,1.92,24.89.27,2.42,2,4.71,3.25,7a2.25,2.25,0,0,0,2.13.08,18.06,18.06,0,0,0,3.39-4.33c1.61-3.19,2.73-6.63,4.36-9.81,2.15-4.18,4.54-8.24,7-12.27.4-.67,1.46-.94,2.21-1.39.1.85.51,1.81.25,2.53-.76,2.17-1.75,4.26-2.7,6.36-1.72,3.8-3.28,7.7-5.27,11.36a93.54,93.54,0,0,1-8,13c-3.75,4.79-11.47,6.11-16.89,3.33-3.62-1.86-5.56-5.29-7.37-8.86-2-4-2.19-8.26-2.33-12.56,0-.42-.36-.83-.87-2-1.67,2-3.12,3.58-4.44,5.29-2.25,2.9-4.43,5.86-6.61,8.81-.8,1.09-1.3,2.51-2.31,3.31-3.52,2.76-6.67,6.22-11.68,6.36-1.91.05-4,1.1-5.68.64-6.21-1.66-11.93-4.23-14.35-11a4.92,4.92,0,0,0-1.11-2.07c-1.27-1.09-2.23-.79-2.91.87-2.74,6.7-7.3,11.59-14.65,12.84-7,1.19-14,.74-19.74-4.21A17,17,0,0,1,176.24,82a53.74,53.74,0,0,1-2.36-6.68A8.1,8.1,0,0,0,173,74Zm-57.41-.2h.11c.12,1.52.17,3,.37,4.55.49,3.7,3.91,5.46,7.15,3.65,1.93-1.08,4-2,4.9-4.35s2.26-4.84,3.19-7.33c.43-1.15.61-2.7-1.1-3.21-3.89-1.16-7.12-3-8.89-7-.49-1.11-2.05-2.23-3-.67A16,16,0,0,0,116,65.4,67.86,67.86,0,0,0,115.61,73.79Zm36.27,30.6h-.14c0-.64,0-1.28,0-1.92a19.55,19.55,0,0,0-.21-2.15c-.39-2.28-1.1-2.64-2.71-1.11a48.94,48.94,0,0,0-6.53,7,11.31,11.31,0,0,0-1.88,6c0,2,3.21,3.64,5.88,3.49,3-.17,4.88-1.63,5.15-4.1S151.72,106.79,151.88,104.39Zm51.33-53.7c-1.15-1-2-2.27-2.8-2.23a4.63,4.63,0,0,0-3.21,1.77,76.28,76.28,0,0,0-4.34,7.8,5.22,5.22,0,0,0-.16,1.91c.66-.09,1.46,0,2-.31A27.92,27.92,0,0,0,199.38,56,47,47,0,0,0,203.21,50.69ZM131,54.91l-.87,0a4.6,4.6,0,0,0-.88,5.57,1.58,1.58,0,0,0,1.09.71c.34,0,.93-.56.93-.86C131.27,58.54,131.12,56.72,131,54.91Z"/><path class="cls-1" d="M21.61,83.66c.08,4.74.18,9.48.24,14.21a5.31,5.31,0,0,1-5.18,5.36c-2.55.11-5.1.24-7.66.32-4.46.13-6.22-1.36-6.67-5.67C1.7,91.85.81,85.81.58,79.76c-.38-10-1-20.12-.18-30.08C.85,44.07,1.56,38.43,2,32.77a80.36,80.36,0,0,1,1.58-10.4c.89-4.42,2.07-8.78,3-13.19a24.41,24.41,0,0,0,.35-4.07C7.08,1.16,8.25-.11,12.12,0a16.18,16.18,0,0,1,4.83,1.07,2.67,2.67,0,0,1,1.37,1.8c.82,4.71,1.44,9.45,2.28,14.15a14.12,14.12,0,0,0,1.49,3.26c1-.72,2.22-1.24,2.83-2.19a76.45,76.45,0,0,0,5-8.85C32,4.8,36.37,5,40,3.89c.87-.27,2.41.77,3.32,1.58a11.92,11.92,0,0,1,4.23,7.31c.33,2.16,1.62,4.18,1.89,6.34a77.47,77.47,0,0,1,.19,8.66c0,2.57.24,5.15.07,7.7A29.7,29.7,0,0,1,48.58,41c-.68,2.53-1.63,5-2.19,7.56-1.23,5.58-5.32,8.74-10,10.79C33.3,60.76,29.53,60.78,26,61.07c-3.1.26-3.51.3-3.72,3.38-.43,6.39-.71,12.79-1.06,19.19ZM39.29,16c-.57-2.13-1-4.41-1.81-6.56a1.87,1.87,0,0,0-3.43,0c-.93,1.66-1.58,3.49-2.56,5.13-2.19,3.68-4.72,7.17-6.68,11-.94,1.82-1.62,4.35-1.13,6.21a29.66,29.66,0,0,1,.16,15.18,2.54,2.54,0,0,0,1,3.11c2.12,1.58,4.11,3.33,6.24,4.89,1.2.87,2.72.79,3.29-.62a62.66,62.66,0,0,0,2.21-7.44A22.11,22.11,0,0,0,37.22,43a42.34,42.34,0,0,0,.16-5.12c-.09-2.38-.69-4.79-.43-7.11C37.51,25.86,38.48,20.95,39.29,16Z"/><path class="cls-1" d="M158.82,26.14a47.92,47.92,0,0,1,5.6,2.08c.55.27.87,1.68.76,2.5-.48,3.78-1.06,7.55-1.84,11.27a3,3,0,0,1-2.07,1.85c-5,.49-8.15-2-9.41-6.93-.6-2.36-2-4.62-.11-7.06A8.63,8.63,0,0,1,158.82,26.14Z"/><path class="cls-1" d="M505,157.07a87.32,87.32,0,0,0,3.42-8.27c.94-3.08,1.35-6.32,2.07-9.47s1.45-6.5,2.44-9.67a5.51,5.51,0,0,0-1.14-5.81c-3.12-3.88-3-8.67-2.46-13.36a10.5,10.5,0,0,1,1.32-3.66,3.33,3.33,0,0,1,1.85-1.61,68.53,68.53,0,0,1,7.23-1.13c3.43-.38,4.65,1.22,3.73,4.47a14.48,14.48,0,0,0-.08,3.31c-.07,1.91-.29,3.83-.22,5.74a26.46,26.46,0,0,0,.7,3.94c1.3-.28,2.79-.24,3.86-.89,5.16-3.2,7.83-8.25,10.1-13.69,2.47-5.92,6.17-11.13,12-14.09,8-4.06,16.2-4.37,24.09.62,1.69,1.07,2.48,4.77,1.49,6.69-1.16,2.26-2.88,2-4.95,1.27-3.05-1-7.85,1.56-10,5.5-4.42,8.18-7.76,16.67-7.75,26.26,0,5.15,2.15,9.49,3.94,14a3.42,3.42,0,0,0,5.84,1c3.32-3.38,5.49-7,4.08-12.27-2.15-8-.86-15.87,2.17-23.45,1.91-4.79,9.18-6.51,12.65-3.11a4.68,4.68,0,0,1,1.31,2.31c1.32,7.09,2.68,14.07,1.45,21.48-.67,4,.71,8.46,1.57,12.62.21,1,2,1.85,3.17,2.36.3.13,1.53-1.25,1.89-2.11,2.24-5.41,4.44-10.85,6.49-16.34,1.82-4.89,3.83-9.78,4.91-14.85.37-1.71-1.55-4.2-2.93-5.94-3.46-4.4-3.81-9.15-2.47-14.31.48-1.85.38-3.9,1.1-5.62a15.53,15.53,0,0,1,15.59-9.34c4.68.47,9.92,4.91,6.71,11.15-1.81,3.51-3.66,7-5.66,10.42s-1.56,4.82.9,7.83a43.44,43.44,0,0,0,13.7,11.36c2,1,3.91,1.27,5.63-.37q5.86-5.54,11.61-11.2a7.78,7.78,0,0,0,2.29-6.31,27.67,27.67,0,0,1,1.27-10.1c.61-1.71,3.16-3.14,5.14-3.85,3.69-1.33,11.22,2.12,13,5.53a1.51,1.51,0,0,1,.26.84c-1.47,7.72,1.07,15.12,2.08,22.59.76,5.65,3,11.1,4.72,16.61.66,2.15,1.74,2.16,3.6.78,4.27-3.18,5-8.17,6.85-12.56,1.67-4.07,2.34-8.54,3.9-12.66,2.08-5.49,4.58-10.82,6.92-16.2a8.23,8.23,0,0,1,1.17-1.43c2.06,1.85,2,4,1.3,6.11-2,5.69-4.27,11.28-6.23,17-1.37,4-2.06,8.23-3.67,12.1a178.8,178.8,0,0,1-8.08,16.61c-.69,1.26-2.65,2.12-4.2,2.55a60.62,60.62,0,0,1-8.12,1.42c-7.14,1-13.19-3.36-14.84-10.4-.9-3.85-2.23-7.6-3-11.48-.52-2.77-.31-5.67-.54-8.51-.14-1.76-.51-3.5-.9-6.12a38.1,38.1,0,0,0-3.72,3.37c-2.06,2.52-4,5.16-6,7.73-1.34,1.74-1.33,3.55.29,4.91,6.31,5.34,7.59,12.71,7.42,20.17a17.49,17.49,0,0,1-5.11,12c-4.6,4.55-9.8,8.18-16.16,9.77-2.63.66-5.41,1.34-7.83-.86a1.94,1.94,0,0,0-1.42-.44c-4.26.66-6.51-2.52-8.34-5.18-2.92-4.24-4.07-8.67-1.13-14.11,2.64-4.87,5.21-9.54,9.12-13.48,2.51-2.53,2.25-4.89-.36-7.38-2.35-2.24-4.61-4.59-7-6.76-2.2-2-4.16-1.2-4.79,1.64-.79,3.54-1.86,7-2.66,10.56-.67,2.95-1,6-1.75,8.9a31.76,31.76,0,0,1-2.93,7.59c-2.78,4.77-10.88,7.3-16.57,5.11a48.37,48.37,0,0,1-9-4.89c-1.75-1.15-2.16.08-3.21.85-4.1,3-8,7.31-13.43,6.72-7.9-.86-16.23-2.62-20.21-10.46-2.13-4.19-4.59-9-3.49-14.27a10.34,10.34,0,0,0,.09-2.44c-.14-3.93-.83-4.46-4.58-3.51-4.74,1.19-6.81,4.06-6.94,9.15a22.67,22.67,0,0,1-1,5.29c-1.21,4.43-2.31,8.91-3.86,13.23-1.86,5.17-5.68,12.74-12.74,12.86-2.06,0-4.08,1.21-6.16,1.69-6.58,1.51-11.3-1.32-14.7-7.19-2.24-3.87-3.13-7.87-4-12.05a11.74,11.74,0,0,0-1.14-2.51l-.83,0c-.74,2.24-1.59,4.45-2.21,6.72-1.25,4.55-2.09,9.24-3.64,13.68a9.74,9.74,0,0,1-7.32,6.32c-6.94,1.7-13.16.41-18.52-4.27-1.65-1.44-2.24-.81-3.67.32-4.23,3.34-8.52,7.79-14.28,6.76-6.33-1.13-13.22-2-17.53-8-.21-.29-.65-.41-1.62-1-1.46,3.49-3.28,6.68-4.09,10.1-1.25,5.25-2.41,10.6-6.29,14.45-7.36,7.31-21,8.47-28.6-.54A26,26,0,0,1,364,186c-.75-1.62-1.66-2.29-3.3-1.55-1.11.5-2.08,1.34-3.21,1.72-2,.67-4,1.66-6,1.54-4.69-.3-9.33-1.35-13.07-4.45-1.91-1.58-3.37-3.71-5.12-5.51a8.12,8.12,0,0,0-1.94-1.12,17.21,17.21,0,0,0-.9,1.8c-2,5.4-3.52,11-6,16.16-2.36,4.89-6.92,7.08-12.44,6.51-5.1-.53-8.75-2.75-11.57-7.59-5.41-9.26-5.12-19.52-6.24-29.48-.51-4.55,1.2-9.33,1.74-14a22.31,22.31,0,0,0-.32-4.33l-1,0c-.8,2-1.73,3.89-2.37,5.91-.69,2.21-1.69,4.55-1.54,6.76.36,5.11-1.94,9.72-2.25,14.57-.45,6.89-2.55,13.76-.34,20.8,1.22,3.9.39,4.79-3.63,5.05a65.25,65.25,0,0,1-7.59-.3c-.4,0-.79-.2-1.19-.24-1.93-.16-4.72.44-5.62-.6-2-2.28-3.1-5.34-4.34-8.18a36.8,36.8,0,0,1-1.45-5.23l-.95.08a9.16,9.16,0,0,0-.84,1.71c-1.16,4.47-2,9-3.49,13.41a9.86,9.86,0,0,1-7.48,6.55c-6.95,1.67-13.17.39-18.51-4.33-1.7-1.51-2.29-.65-3.66.42-4.17,3.25-8.36,7.6-14,6.73-7.48-1.14-15.56-2.66-19.47-10.22-2.15-4.16-2.55-9.25-3.61-13.95-.24-1.05.13-2.23.08-3.34a35.48,35.48,0,0,1,3.86-16.9c1.52-3.2,2.84-6.51,4.57-9.59,6.13-11,13.57-14,25.14-13.6,3.14.12,6.29,2.15,9.28,3.61,1.76.87,2.36,4.85,1.32,6.7-1.15,2-2.76,1.85-4.73,1.19-3.18-1.08-8.05,1.54-10.21,5.58-4.33,8.11-7.64,16.49-7.66,26,0,5.26,2.11,9.71,4,14.26,1,2.51,3.94,2.77,5.87.79,3.32-3.42,5.34-7.09,3.94-12.31-2.1-7.87-.79-15.65,2.13-23.16,1.84-4.74,9.09-6.68,12.59-3.34a5.59,5.59,0,0,1,1.52,2.84c1.3,7,2.59,13.88,1.34,21.18-.67,3.92.66,8.27,1.55,12.32.23,1.07,2.11,1.89,3.38,2.53.18.09,1.42-1.38,1.79-2.28,2.23-5.42,4.47-10.84,6.49-16.34,1.84-5,3.46-10.08,5.05-15.17a8.84,8.84,0,0,0,.17-3.61c-.55-4.45-1.09-8.91-1.91-13.32-.5-2.66,0-4.13,2.82-5s5.64-2.9,8.61-.65c1.17.89,2.5,2.23,2.76,3.55,1.23,6.3,2.08,12.67,3.14,19a37.2,37.2,0,0,0,1.21,4.09c.75-.84,1.27-1.14,1.32-1.52.53-3.69.73-7.44,1.53-11.07,1-4.51,2.47-8.91,3.76-13.35.48-1.65.7-3.47,1.58-4.88A129.2,129.2,0,0,1,297,126.61c2.93-3.64,12.65-4.59,16.34-1.82a5.35,5.35,0,0,1,2.11,3.38c.28,4.93.1,9.88.28,14.82a82.09,82.09,0,0,0,.88,8.19c.82,5.94,1.61,11.78.83,17.91-.55,4.3.77,8.88,1.53,13.29.36,2.08,2,2.28,3.42.91a11.34,11.34,0,0,0,2.71-4c1.37-3.78,2.55-7.65,3.59-11.54a51.26,51.26,0,0,0,1.38-7.67c.45-4.1.64-8.22,1-12.33a10.11,10.11,0,0,1,.85-3.19c3.17-6.94,8.56-11.63,15.33-14.89,9.24-4.45,7-3.82,6.54-11.68a77.91,77.91,0,0,1,.33-8.46,14.27,14.27,0,0,0,.11-3c-1.64-9.32.48-18.17,3.69-26.75,1.87-5,4.74-9.85,10.95-10,2.5-.08,5.09,1.42,7.58,2.37a16.18,16.18,0,0,1,2.46,1.78c6.81,4.31,7.11,11.55,8.43,18.39,1,5.41-1.83,10.28-1.9,15.53a45.16,45.16,0,0,0-.19,5.74c.67,5.64-.56,11-2.06,16.33-.84,3-1.28,6.1-1.82,9.16-.5,2.83-1.53,5.76-1.2,8.51a160.85,160.85,0,0,0,3.8,21.93c1.23,4.64,4,8.89,6.24,13.23,1.06,2.06,2.72,1.87,3.69,0,2.4-4.68,5-9.33,6.74-14.27,2.49-7.08,1.86-14.59,2.19-22,.19-4.22,1.76-8.46,3.25-12.5a73.08,73.08,0,0,1,5.39-11.22c6.13-10.63,13.35-13.74,25-13.27,3.14.13,6.58,1.83,9.14,3.78,1.33,1,1.71,4.25,1.35,6.28-.42,2.36-2.62,2.15-4.73,1.42-3.11-1.07-7.83,1.4-10,5.38-4.54,8.25-7.81,16.86-7.81,26.55,0,5.05,2.19,9.28,3.9,13.69,1,2.68,4,3,6,1,3.32-3.42,5.29-7.11,3.89-12.33-2.11-7.87-.8-15.66,2.16-23.16,1.88-4.76,9.1-6.62,12.62-3.27a4.59,4.59,0,0,1,1.36,2.27c1.3,7.09,2.72,14.06,1.48,21.48-.67,4,.68,8.46,1.52,12.63.21,1,1.9,2,3.11,2.42.35.14,1.66-1.34,2.05-2.27,2.25-5.41,4.47-10.84,6.49-16.34a64.81,64.81,0,0,0,3.47-11.52c.74-4.46.58-9.06.88-13.6.13-1.89.48-3.77.67-5.66.14-1.4.1-2.82.3-4.21.4-2.9.43-6,1.48-8.62,1.36-3.45,5.1-3.89,8.25-4.29,5-.64,5.51,0,6.3,5,1.68,10.56,3.09,21.17,5.13,31.66,1,5.2,3,10.24,4.89,15.23.6,1.6,2.21,2.82,3.35,4.21ZM373.14,118.91h.32c.46,3,.85,6.06,1.42,9.06.13.67.86,1.23,1.32,1.84a7.56,7.56,0,0,0,1.39-1.69,15.77,15.77,0,0,0,1.41-4.32c.74-7.29,1.51-14.58,1.9-21.89.21-3.94,1.51-7.89,0-11.91-1.59-4.22-2.57-8.69-4.37-12.8-1.11-2.54-3.61-2.34-4.65.24a16.86,16.86,0,0,0-1.17,6.32c0,3.24.66,6.48.88,9.73C372.14,102,372.63,110.43,373.14,118.91Zm-15.92,37.9h0c-.76-5-1.47-10.05-2.32-15.06a7.42,7.42,0,0,0-1.34-2.24,14.19,14.19,0,0,0-2,1.62c-3.39,4-4.21,9.08-4.5,13.84a30.45,30.45,0,0,0,5.31,18.61c.88,1.33,3.15,2.66,4.61,2.49,2.28-.26,2.79-2.47,2.39-4.8C358.61,166.47,357.95,161.64,357.22,156.81Zm268.89-8.87a27.59,27.59,0,0,0-1.37-4.7c-.59-1.26-1.6-2.92-2.71-3.17s-2.94.64-3.9,1.59c-3.76,3.7-4.5,8.92-6.25,13.61a3.59,3.59,0,0,0,1,3,6.88,6.88,0,0,0,8,.73C624.88,156.74,626.79,152.85,626.12,147.94ZM611,96l1,.49A8.48,8.48,0,0,0,617,89.31a6.23,6.23,0,0,0-.68-1.84c-.7.28-1.78.37-2,.87C613.07,90.84,612.08,93.46,611,96Z"/><path class="cls-1" d="M155.71,192.42c1.61-4.76,2.86-8.58,4.19-12.37,2.17-6.14,4.5-12.22,6.56-18.4,1.47-4.39,2.58-8.9,3.89-13.34a46.73,46.73,0,0,0,1.54-4.58c1-5.6,1.46-11.36,3-16.82,1.62-5.85,1.17-11.68,1.15-17.53,0-1.22-.94-2.42-1.16-3.67a54.11,54.11,0,0,1-1.22-9.18c0-2,1.48-2.76,3.46-1.39a21.81,21.81,0,0,1,9.48,15.07,121.58,121.58,0,0,1,1.92,17c.07,4.86-1.05,9.74-1.65,14.62a5.82,5.82,0,0,0-.18,1.51c.74,4.79-1.34,9.12-2.18,13.65-.69,3.73-1.08,7.52-1.71,11.26-.25,1.47-1,2.87-1.22,4.34-1.18,7.84-5.17,14.63-8,21.85-1.7,4.31-2.63,9-4.92,13a59.69,59.69,0,0,1-10.42,13.72c-2.21,2.07-6.41,2.19-9.79,2.77s-6.89,1.78-10-.8c-1.39-1.16-3-2.32-3.81-3.86-3.24-6.23-7.38-11.9-9-19.12-1.88-8.65-5.2-17-7.85-25.48a34.68,34.68,0,0,1-1.16-4.74c-1.76-10.77-3.51-21.54-5.17-32.32-.64-4.17.25-5.36,4.43-5.9a55.48,55.48,0,0,1,7-.22,2.48,2.48,0,0,1,1.7.53,109.84,109.84,0,0,1,7.14,8.53c3.08,4.33,6,8.81,8.71,13.38a82.37,82.37,0,0,1,4.59,9.49c1.51,3.5,3.28,7,4.07,10.69,1.12,5.27,1.25,10.76,4.41,15.43C154.06,190.25,154.65,191,155.71,192.42Z"/><path class="cls-1" d="M668.63,73.42c.17,3,1.38,6-1.62,8.71s-10.77,3.3-13.61.23a6.35,6.35,0,0,1-1.57-4.18,35.44,35.44,0,0,1,1.43-9.75c1.39-4,4.2-4.43,8.84-2.82.47.16.88.79,1.29.76C668.8,66,668.1,70.1,668.63,73.42Z"/></g></g></g></g></svg>